<?xml version="1.0" encoding="UTF-8" standalone="no"?>
<!-- Created with Inkscape (http://www.inkscape.org/) -->

<svg
   width="394.41mm"
   height="95.008682mm"
   viewBox="0 0 394.41001 95.008683"
   version="1.1"
   id="svg1"
   xml:space="preserve"
   inkscape:version="1.4.2 (ebf0e940d0, 2025-05-08)"
   sodipodi:docname="kestrel-logo-named.svg"
   inkscape:export-filename="kestrel-logo-named-32.png"
   inkscape:export-xdpi="8.5600004"
   inkscape:export-ydpi="8.5600004"
   xmlns:inkscape="http://www.inkscape.org/namespaces/inkscape"
   xmlns:sodipodi="http://sodipodi.sourceforge.net/DTD/sodipodi-0.dtd"
   xmlns:xlink="http://www.w3.org/1999/xlink"
   xmlns="http://www.w3.org/2000/svg"
   xmlns:svg="http://www.w3.org/2000/svg"><sodipodi:namedview
     id="namedview1"
     pagecolor="#1c1c23"
     bordercolor="#eeeeee"
     borderopacity="1"
     inkscape:showpageshadow="0"
     inkscape:pageopacity="0"
     inkscape:pagecheckerboard="0"
     inkscape:deskcolor="#505050"
     inkscape:document-units="mm"
     inkscape:zoom="0.7178089"
     inkscape:cx="810.80076"
     inkscape:cy="204.09332"
     inkscape:window-width="1920"
     inkscape:window-height="1052"
     inkscape:window-x="0"
     inkscape:window-y="0"
     inkscape:window-maximized="1"
     inkscape:current-layer="layer1" /><defs
     id="defs1"><linearGradient
       id="linearGradient8"
       inkscape:collect="always"><stop
         style="stop-color:#f49234;stop-opacity:1;"
         offset="0"
         id="stop8" /><stop
         style="stop-color:#b534f1;stop-opacity:1;"
         offset="0.5"
         id="stop10" /><stop
         style="stop-color:#59b4ff;stop-opacity:1;"
         offset="1"
         id="stop9" /></linearGradient><rect
       x="363.60654"
       y="0"
       width="851.20154"
       height="358.034"
       id="rect7" /><linearGradient
       id="linearGradient6"
       inkscape:collect="always"><stop
         style="stop-color:#7114eb;stop-opacity:1;"
         offset="0"
         id="stop6" /><stop
         style="stop-color:#1d82e2;stop-opacity:1;"
         offset="1"
         id="stop7" /></linearGradient><linearGradient
       id="linearGradient4"
       inkscape:collect="always"><stop
         style="stop-color:#f3670c;stop-opacity:1;"
         offset="0"
         id="stop4" /><stop
         style="stop-color:#d02f51;stop-opacity:1;"
         offset="1"
         id="stop5" /></linearGradient><linearGradient
       inkscape:collect="always"
       xlink:href="#linearGradient4"
       id="linearGradient5"
       x1="106.05437"
       y1="152.92656"
       x2="54.082035"
       y2="163.97362"
       gradientUnits="userSpaceOnUse" /><linearGradient
       inkscape:collect="always"
       xlink:href="#linearGradient6"
       id="linearGradient7"
       x1="46.486015"
       y1="109.4213"
       x2="124.13094"
       y2="163.78889"
       gradientUnits="userSpaceOnUse" /><linearGradient
       inkscape:collect="always"
       xlink:href="#linearGradient8"
       id="linearGradient9"
       x1="390.5939"
       y1="187.52664"
       x2="1189.7668"
       y2="187.52664"
       gradientUnits="userSpaceOnUse" /></defs><g
     inkscape:label="Layer 1"
     inkscape:groupmode="layer"
     id="layer1"
     transform="translate(-37.914998,-89.211609)"><path
       id="path1"
       style="display:inline;fill:url(#linearGradient7);stroke:none;stroke-width:0;stroke-dasharray:none"
       inkscape:label="Background Circle"
       d="M 85.308488,89.211609 A 47.39362,47.39362 0 0 0 37.914998,136.6051 47.39362,47.39362 0 0 0 85.308488,183.99859 47.39362,47.39362 0 0 0 132.70198,136.6051 47.39362,47.39362 0 0 0 85.308488,89.211609 Z m -4.845699,17.171561 c 4.153123,-0.1739 7.428858,0.35976 8.947257,0.51263 4.049065,0.40765 9.336392,2.52767 13.604334,5.84099 5.13757,3.98844 6.92619,8.89295 7.40007,11.26236 1.88352,1.5639 5.9357,3.78709 7.04143,8.36796 1.10572,4.58086 0.38697,9.23288 -1.55598,11.03757 -0.66756,-3.36398 -2.50004,-5.95816 -6.2947,-7.0962 -3.70022,-1.10972 -7.76774,-1.79714 -11.961548,-1.63918 2.921508,-3.73533 5.880508,-7.24615 8.664068,-9.7224 -3.72763,-4.08727 -9.432513,-8.73097 -19.861317,-11.72022 -10.96581,-2.38512 -19.647907,-0.34098 -29.991451,4.96662 7.726294,-9.26417 17.085966,-11.5203 24.007837,-11.81013 z m 2.437577,14.37587 c 0,0 3.24095,0.0777 5.190381,0.15606 -0.420019,1.26806 -0.779733,2.74666 -0.302824,4.30826 0.503901,1.64998 1.664804,2.24682 3.368787,2.51665 1.492681,0.23637 3.097962,-0.53241 4.042647,-1.71204 0.6311,-0.78806 0.663267,-1.88419 0.697115,-2.95383 0.838362,0.27746 1.845811,0.50765 2.237073,0.94826 0.109119,1.40825 0.0071,2.77619 -0.916223,3.90674 -0.923389,1.13055 -3.385904,2.45144 -6.645589,2.30167 -3.259685,-0.14977 -5.010892,-2.20897 -6.328813,-3.9672 -1.317921,-1.75823 -1.342554,-5.50457 -1.342554,-5.50457 z" /><path
       style="display:inline;fill:url(#linearGradient5);stroke:none;stroke-width:0;stroke-dasharray:none"
       d="m 53.501448,163.08007 c 3.771571,5.04013 10.244747,9.99069 16.558221,12.43706 10.835362,4.19854 16.80247,4.81585 20.311417,3.09087 3.217401,-1.58165 4.287327,-4.45243 5.666591,-10.2293 1.390864,-5.82546 1.258457,-12.94142 2.50213,-18.10366 1.153202,-4.78671 2.371413,-6.98445 4.194753,-9.12542 1.02429,-1.20272 2.51462,-1.81201 3.90038,-2.42853 -2.132,-0.92841 -5.36324,-1.36678 -7.947948,-1.32466 -5.098915,0.0831 -8.154144,1.54664 -12.142695,4.48911 -4.88605,3.60459 -11.095212,9.79682 -15.8223,13.02581 -5.445591,3.71978 -10.78148,6.54174 -17.220549,8.16872 z"
       id="path4"
       sodipodi:nodetypes="cssssscsssc"
       inkscape:label="Chest" /><path
       d="m 624.58103,308.81366 -3.37333,-25.14669 c -11.96002,16.86668 -18.70669,22.08002 -29.13337,22.08002 -10.73334,0 -21.46669,-8.89334 -30.36003,-25.14669 -8.89334,-16.56002 -13.18668,-26.9867 -28.8267,-70.84008 l -17.17335,-46.92005 c 48.14672,-40.78671 60.4134,-48.76005 73.90675,-48.76005 5.52,0 9.50667,0.92 18.09335,4.60001 l 11.34668,-22.693361 c -7.66668,-3.06667 -11.65335,-3.986671 -17.17336,-3.986671 -9.81334,0 -16.25335,3.06667 -30.36003,14.720012 l -64.40007,52.74673 c -0.92,0.92 -4.6,3.68 -9.81334,7.66667 l 15.94668,-64.0934 c 8.89335,-2.45334 11.34668,-3.986672 15.94669,-9.506677 -13.80002,-0.920001 -20.24002,-1.226668 -27.9067,-1.226668 -24.22669,0 -43.85338,3.373337 -57.34673,9.813345 -23.00002,11.34668 -35.57337,29.44003 -35.57337,51.52005 0,7.97334 1.22667,12.57335 5.21334,23.00003 l 25.14669,-10.73335 c -4.90667,-11.96001 -6.74667,-19.62668 -6.74667,-29.13336 0,-21.46669 15.33335,-33.12004 43.85338,-33.12004 3.37334,0 8.28001,0.30667 14.72002,0.92 l -9.20001,37.72004 c -9.50668,38.33338 -13.80002,54.28006 -18.70669,68.38674 -11.96001,34.04004 -23.30669,45.08005 -46.92005,45.08005 h -11.65335 l -13.49334,13.18668 h 42.01338 c 26.98669,0 27.60002,-0.30666 48.45338,-13.18668 h -37.10671 c 37.41338,-37.41337 42.32005,-45.38671 52.13339,-83.72009 0.61334,2.14667 1.53334,4.29334 2.14667,6.74668 1.84,5.21334 1.84,5.52 5.52001,16.86668 l 5.52,18.40002 c 13.18668,42.93338 22.38669,64.0934 33.42671,76.66675 13.49334,15.33335 32.20003,23.30669 54.89339,23.30669 10.12001,0 15.64001,-0.92 26.98669,-5.21334 z m 58.57334,-72.37341 v -8.89334 c -11.34667,9.20001 -33.12003,27.90669 -48.76005,27.90669 -17.17335,0 -18.70668,-18.40002 -18.40002,-30.36003 7.05334,-3.37333 37.10671,-26.06669 43.24005,-30.6667 11.34668,-9.20001 19.62669,-19.01335 19.62669,-33.4267 0,-10.12001 -6.13334,-17.78668 -17.48002,-17.78668 -11.04001,0 -20.54669,5.52 -31.5867,14.10668 -26.9867,20.85335 -36.49337,55.20006 -36.49337,84.02675 0,18.70669 7.66667,31.89337 26.37336,31.89337 23.61336,0 50.90672,-24.22669 63.48006,-36.80004 z m -26.98669,-66.8534 c 0,22.08002 -25.14669,34.65337 -39.86671,46.00005 1.22667,-15.33335 12.88001,-58.88007 30.36003,-58.88007 6.74668,0 9.50668,6.13334 9.50668,12.88002 z M 785.88787,153.3335 c -6.13334,-7.36001 -11.96001,-10.42668 -20.54669,-10.42668 -22.38669,0 -51.21339,26.68003 -51.21339,46.92005 0,9.50667 4.90668,16.86668 16.56002,25.14669 15.33335,10.73335 17.48002,13.49335 17.48002,21.16002 0,11.04002 -14.10668,23.92003 -26.06669,23.92003 -6.74668,0 -11.96002,-3.68 -15.02669,-10.42668 -2.14667,-4.6 -2.76,-9.20001 -3.06667,-19.62669 -3.37333,2.45334 -5.82667,3.98668 -7.05334,4.90668 -2.45333,1.53333 -5.21334,3.06667 -7.97334,4.90667 0,0 -2.45334,1.53333 -5.52001,3.68 -0.30666,2.76 -0.61333,5.21334 -0.61333,7.05334 0,13.18668 9.20001,22.38669 22.69336,22.38669 9.50667,0 22.69336,-3.98667 32.5067,-9.50667 18.09335,-10.42668 29.13336,-26.0667 29.13336,-41.40005 0,-11.34668 -2.14667,-13.80001 -19.32002,-24.53336 -10.42667,-6.74667 -14.72001,-12.57334 -14.72001,-20.54669 0,-10.42667 8.89334,-19.62668 19.32002,-19.62668 7.05334,0 12.26668,3.37333 19.01335,11.96001 10.42668,-10.12001 10.42668,-10.12001 14.41335,-15.94668 z m 87.09318,84.64009 0.61333,-7.66668 c -23.30669,13.80002 -33.12004,19.01335 -37.41337,19.01335 -3.98667,0 -8.89335,-7.97334 -8.89335,-14.41334 0,-4.29334 5.21334,-27.9067 13.18668,-60.10673 4.29334,-0.30667 7.36001,-0.30667 8.89335,-0.30667 l 12.26668,-0.30667 c 1.22666,0 4.29333,-0.30667 9.20001,-0.92 l 11.65334,-8.89334 h -39.25337 l 12.26668,-49.68005 c -5.82668,3.06667 -8.28001,3.98667 -12.88002,6.13333 -2.14667,1.22667 -4.6,2.14667 -7.05334,3.37334 -1.22667,0.61334 -2.76,1.22667 -4.29334,1.84 l -8.58667,38.33338 c -2.76,0.30666 -4.60001,0.30666 -5.52001,0.30666 h -7.36 c 0,0 -2.14667,0 -4.60001,0.30667 -3.37334,2.14667 -3.68,2.14667 -8.89334,6.44001 -0.92,0.61333 -2.45334,1.84 -4.60001,3.37334 h 7.36001 14.10668 6.74668 c -16.25335,68.08007 -16.25335,68.08007 -16.25335,77.58674 0,9.81335 6.44,20.54669 12.26668,20.54669 6.74667,0 27.60002,-12.88001 57.04006,-34.96003 z m 112.85337,-92.61344 c -5.82667,-1.84 -8.28001,-2.45333 -11.34668,-2.45333 -5.52,0 -11.96001,2.76 -20.24002,8.58667 l -18.09335,13.18668 c 0.30667,-2.45333 0.92,-3.98667 0.92,-4.90667 2.45334,-10.12001 2.76,-11.96001 2.76,-13.49334 0,-1.84001 -1.84,-3.37334 -3.98667,-3.37334 -3.98667,0 -30.97336,13.18668 -49.68005,24.53336 l -0.92,8.28001 c 16.56002,-8.58668 18.40002,-9.20001 22.08002,-9.20001 3.98667,0 5.82668,2.14667 5.82668,6.44 0,4.29334 -3.06667,18.70669 -6.74668,31.89337 l -18.40002,67.16007 23.61336,-8.89334 23.00003,-87.40009 c 10.42667,-7.66668 17.48001,-10.73335 25.76002,-10.73335 6.74668,0 10.73335,2.45334 16.25335,9.50668 z m 83.71988,91.0801 v -8.89334 c -11.3467,9.20001 -33.1201,27.90669 -48.7601,27.90669 -17.1733,0 -18.7067,-18.40002 -18.4,-30.36003 7.0533,-3.37333 37.1067,-26.06669 43.24,-30.6667 11.3467,-9.20001 19.6267,-19.01335 19.6267,-33.4267 0,-10.12001 -6.1333,-17.78668 -17.48,-17.78668 -11.04,0 -20.5467,5.52 -31.5867,14.10668 -26.98669,20.85335 -36.49337,55.20006 -36.49337,84.02675 0,18.70669 7.66668,31.89337 26.37337,31.89337 23.6134,0 50.9067,-24.22669 63.4801,-36.80004 z m -26.9867,-66.8534 c 0,22.08002 -25.1467,34.65337 -39.8667,46.00005 1.2266,-15.33335 12.88,-58.88007 30.36,-58.88007 6.7467,0 9.5067,6.13334 9.5067,12.88002 z m 108.2535,66.54673 v -6.74667 c -4.2934,2.45334 -7.0534,4.29334 -8.28,4.90667 -22.08,13.80002 -24.5334,15.02668 -28.8267,15.02668 -5.52,0 -5.52,-7.36 -5.52,-13.49334 0,-5.52001 13.8,-65.01341 25.1467,-108.25345 11.96,-45.080049 14.72,-50.600055 28.2133,-50.600055 3.9867,0 7.0534,0.306667 15.0267,2.146669 l 13.1867,-16.253351 c -6.44,-1.533335 -9.8134,-1.840002 -13.8,-1.840002 -12.2667,0 -22.08,4.906672 -36.8001,18.093353 -13.4933,12.26668 -16.8666,16.866685 -20.8533,27.906696 -2.4534,7.36001 -9.2,32.20003 -12.2667,45.69338 l -22.08,95.98677 c -0.3067,1.84 -0.6134,3.68 -0.6134,5.52001 0,9.50667 3.68,18.70668 12.8801,18.70668 3.0666,0 15.9466,-8.89334 54.5867,-36.80004 z"
       id="text7"
       style="font-weight:500;font-size:306.667px;font-family:'TeX Gyre Chorus';-inkscape-font-specification:'TeX Gyre Chorus Medium';white-space:pre;fill:url(#linearGradient9);stroke-width:0"
       transform="matrix(0.37435476,0,0,0.37435476,-13.070223,66.662863)"
       aria-label="Kestrel" /></g></svg>
