<?xml version="1.0" encoding="UTF-8" standalone="no"?>
<!-- Created with Inkscape (http://www.inkscape.org/) -->

<svg
   width="394.41mm"
   height="95.008682mm"
   viewBox="0 0 394.41001 95.008683"
   version="1.1"
   id="svg1"
   xml:space="preserve"
   inkscape:version="1.4.2 (ebf0e940d0, 2025-05-08)"
   sodipodi:docname="kestrel-logo-named.svg"
   inkscape:export-filename="kestrel-logo-256x256.png"
   inkscape:export-xdpi="68.600136"
   inkscape:export-ydpi="68.600136"
   xmlns:inkscape="http://www.inkscape.org/namespaces/inkscape"
   xmlns:sodipodi="http://sodipodi.sourceforge.net/DTD/sodipodi-0.dtd"
   xmlns:xlink="http://www.w3.org/1999/xlink"
   xmlns="http://www.w3.org/2000/svg"
   xmlns:svg="http://www.w3.org/2000/svg"><sodipodi:namedview
     id="namedview1"
     pagecolor="#1c1c23"
     bordercolor="#eeeeee"
     borderopacity="1"
     inkscape:showpageshadow="0"
     inkscape:pageopacity="0"
     inkscape:pagecheckerboard="0"
     inkscape:deskcolor="#505050"
     inkscape:document-units="mm"
     inkscape:zoom="0.7178089"
     inkscape:cx="810.80076"
     inkscape:cy="204.09332"
     inkscape:window-width="1920"
     inkscape:window-height="1052"
     inkscape:window-x="0"
     inkscape:window-y="0"
     inkscape:window-maximized="1"
     inkscape:current-layer="layer1" /><defs
     id="defs1"><linearGradient
       id="linearGradient8"
       inkscape:collect="always"><stop
         style="stop-color:#f49234;stop-opacity:1;"
         offset="0"
         id="stop8" /><stop
         style="stop-color:#b534f1;stop-opacity:1;"
         offset="0.5"
         id="stop10" /><stop
         style="stop-color:#59b4ff;stop-opacity:1;"
         offset="1"
         id="stop9" /></linearGradient><rect
       x="363.60654"
       y="0"
       width="851.20154"
       height="358.034"
       id="rect7" /><linearGradient
       id="linearGradient6"
       inkscape:collect="always"><stop
         style="stop-color:#7114eb;stop-opacity:1;"
         offset="0"
         id="stop6" /><stop
         style="stop-color:#1d82e2;stop-opacity:1;"
         offset="1"
         id="stop7" /></linearGradient><linearGradient
       id="linearGradient4"
       inkscape:collect="always"><stop
         style="stop-color:#f3670c;stop-opacity:1;"
         offset="0"
         id="stop4" /><stop
         style="stop-color:#d02f51;stop-opacity:1;"
         offset="1"
         id="stop5" /></linearGradient><linearGradient
       inkscape:collect="always"
       xlink:href="#linearGradient4"
       id="linearGradient5"
       x1="106.05437"
       y1="152.92656"
       x2="54.082035"
       y2="163.97362"
       gradientUnits="userSpaceOnUse" /><linearGradient
       inkscape:collect="always"
       xlink:href="#linearGradient6"
       id="linearGradient7"
       x1="46.486015"
       y1="109.4213"
       x2="124.13094"
       y2="163.78889"
       gradientUnits="userSpaceOnUse" /><linearGradient
       inkscape:collect="always"
       xlink:href="#linearGradient8"
       id="linearGradient9"
       x1="390.5939"
       y1="187.52664"
       x2="1189.7668"
       y2="187.52664"
       gradientUnits="userSpaceOnUse" /></defs><g
     inkscape:label="Layer 1"
     inkscape:groupmode="layer"
     id="layer1"
     transform="translate(-37.914998,-89.211609)"><path
       id="path1"
       style="display:inline;fill:url(#linearGradient7);stroke:none;stroke-width:0;stroke-dasharray:none"
       inkscape:label="Background Circle"
       d="M 85.308488,89.211609 A 47.39362,47.39362 0 0 0 37.914998,136.6051 47.39362,47.39362 0 0 0 85.308488,183.99859 47.39362,47.39362 0 0 0 132.70198,136.6051 47.39362,47.39362 0 0 0 85.308488,89.211609 Z m -4.845699,17.171561 c 4.153123,-0.1739 7.428858,0.35976 8.947257,0.51263 4.049065,0.40765 9.336392,2.52767 13.604334,5.84099 5.13757,3.98844 6.92619,8.89295 7.40007,11.26236 1.88352,1.5639 5.9357,3.78709 7.04143,8.36796 1.10572,4.58086 0.38697,9.23288 -1.55598,11.03757 -0.66756,-3.36398 -2.50004,-5.95816 -6.2947,-7.0962 -3.70022,-1.10972 -7.76774,-1.79714 -11.961548,-1.63918 2.921508,-3.73533 5.880508,-7.24615 8.664068,-9.7224 -3.72763,-4.08727 -9.432513,-8.73097 -19.861317,-11.72022 -10.96581,-2.38512 -19.647907,-0.34098 -29.991451,4.96662 7.726294,-9.26417 17.085966,-11.5203 24.007837,-11.81013 z m 2.437577,14.37587 c 0,0 3.24095,0.0777 5.190381,0.15606 -0.420019,1.26806 -0.779733,2.74666 -0.302824,4.30826 0.503901,1.64998 1.664804,2.24682 3.368787,2.51665 1.492681,0.23637 3.097962,-0.53241 4.042647,-1.71204 0.6311,-0.78806 0.663267,-1.88419 0.697115,-2.95383 0.838362,0.27746 1.845811,0.50765 2.237073,0.94826 0.109119,1.40825 0.0071,2.77619 -0.916223,3.90674 -0.923389,1.13055 -3.385904,2.45144 -6.645589,2.30167 -3.259685,-0.14977 -5.010892,-2.20897 -6.328813,-3.9672 -1.317921,-1.75823 -1.342554,-5.50457 -1.342554,-5.50457 z" /><path
       style="display:inline;fill:url(#linearGradient5);stroke:none;stroke-width:0;stroke-dasharray:none"
       d="m 53.501448,163.08007 c 3.771571,5.04013 10.244747,9.99069 16.558221,12.43706 10.835362,4.19854 16.80247,4.81585 20.311417,3.09087 3.217401,-1.58165 4.287327,-4.45243 5.666591,-10.2293 1.390864,-5.82546 1.258457,-12.94142 2.50213,-18.10366 1.153202,-4.78671 2.371413,-6.98445 4.194753,-9.12542 1.02429,-1.20272 2.51462,-1.81201 3.90038,-2.42853 -2.132,-0.92841 -5.36324,-1.36678 -7.947948,-1.32466 -5.098915,0.0831 -8.154144,1.54664 -12.142695,4.48911 -4.88605,3.60459 -11.095212,9.79682 -15.8223,13.02581 -5.445591,3.71978 -10.78148,6.54174 -17.220549,8.16872 z"
       id="path4"
       sodipodi:nodetypes="cssssscsssc"
       inkscape:label="Chest" /><text
       xml:space="preserve"
       transform="matrix(0.37435476,0,0,0.37435476,-13.070223,66.662863)"
       id="text7"
       style="font-style:normal;font-variant:normal;font-weight:500;font-stretch:normal;font-size:306.667px;font-family:'TeX Gyre Chorus';-inkscape-font-specification:'TeX Gyre Chorus Medium';text-align:start;writing-mode:lr-tb;direction:ltr;white-space:pre;shape-inside:url(#rect7);fill:url(#linearGradient9);stroke:none;stroke-width:0;stroke-dasharray:none"><tspan
         x="363.60742"
         y="268.94695"
         id="tspan1">Kestrel</tspan></text></g></svg>
